<svg xmlns="http://www.w3.org/2000/svg" viewBox="0 0 500 491"><defs><style>.cls-1{fill:#35508d;}.cls-2{fill:#d3d2cb;}.cls-3{fill:#fff;}.cls-4{fill:#edebdf;}</style></defs><g id="Layer_2" data-name="Layer 2"><g id="Capa_3" data-name="Capa 3"><circle class="cls-1" cx="248.99" cy="244.18" r="96.81" transform="translate(-99.73 247.58) rotate(-45)"/><path class="cls-1" d="M249,346.82A102.64,102.64,0,1,1,351.63,244.18,102.66,102.66,0,0,1,249,346.82Zm0-203.31A100.67,100.67,0,1,0,349.66,244.18,100.78,100.78,0,0,0,249,143.51Z"/><circle class="cls-1" cx="51.08" cy="245.13" r="45.72"/><path class="cls-1" d="M51.08,296.21a51.08,51.08,0,1,1,51.08-51.08A51.14,51.14,0,0,1,51.08,296.21Zm0-100.19a49.11,49.11,0,1,0,49.11,49.11A49.16,49.16,0,0,0,51.08,196Z"/><path class="cls-1" d="M159.28,127.44a51.08,51.08,0,1,1,51.08-51.08A51.14,51.14,0,0,1,159.28,127.44Zm0-100.19a49.12,49.12,0,1,0,49.11,49.11A49.17,49.17,0,0,0,159.28,27.25Z"/><path class="cls-1" d="M340.73,127.44a51.08,51.08,0,1,1,51.08-51.08A51.14,51.14,0,0,1,340.73,127.44Zm0-100.19a49.12,49.12,0,1,0,49.11,49.11A49.17,49.17,0,0,0,340.73,27.25Z"/><path class="cls-1" d="M463.79,148.34a28.15,28.15,0,1,1,28.15-28.15A28.18,28.18,0,0,1,463.79,148.34Zm0-54.33A26.19,26.19,0,1,0,490,120.19,26.22,26.22,0,0,0,463.79,94Z"/><path class="cls-1" d="M463.79,396a28.15,28.15,0,1,1,28.15-28.14A28.18,28.18,0,0,1,463.79,396Zm0-54.33A26.19,26.19,0,1,0,490,367.85,26.22,26.22,0,0,0,463.79,341.66Z"/><path class="cls-1" d="M248.71,491a28.15,28.15,0,1,1,28.15-28.15A28.18,28.18,0,0,1,248.71,491Zm0-54.33a26.18,26.18,0,1,0,26.18,26.18A26.21,26.21,0,0,0,248.71,436.67Z"/><path class="cls-1" d="M248.71,56.3a28.15,28.15,0,1,1,28.15-28.15A28.18,28.18,0,0,1,248.71,56.3Zm0-54.33a26.18,26.18,0,1,0,26.18,26.18A26.2,26.2,0,0,0,248.71,2Z"/><path class="cls-1" d="M33.05,148.34A28.15,28.15,0,1,1,61.2,120.19,28.18,28.18,0,0,1,33.05,148.34Zm0-54.33a26.19,26.19,0,1,0,26.18,26.18A26.21,26.21,0,0,0,33.05,94Z"/><path class="cls-1" d="M33.05,396A28.15,28.15,0,1,1,61.2,367.85,28.18,28.18,0,0,1,33.05,396Zm0-54.33a26.19,26.19,0,1,0,26.18,26.19A26.21,26.21,0,0,0,33.05,341.66Z"/><path class="cls-1" d="M159.28,464.57a50.67,50.67,0,1,1,50.66-50.67A50.73,50.73,0,0,1,159.28,464.57Zm0-100.2A49.53,49.53,0,1,0,208.8,413.9,49.59,49.59,0,0,0,159.28,364.37Z"/><path class="cls-1" d="M340.73,464.57a50.67,50.67,0,1,1,50.66-50.67A50.73,50.73,0,0,1,340.73,464.57Zm0-100.2a49.53,49.53,0,1,0,49.52,49.53A49.59,49.59,0,0,0,340.73,364.37Z"/><path class="cls-1" d="M448.92,296.21A51.08,51.08,0,1,1,500,245.13,51.13,51.13,0,0,1,448.92,296.21Zm0-100.19A49.11,49.11,0,1,0,498,245.13,49.16,49.16,0,0,0,448.92,196Z"/><circle class="cls-1" cx="159.52" cy="413.9" r="45.72" transform="translate(-279.75 475.58) rotate(-76.92)"/><circle class="cls-1" cx="159.28" cy="76.36" r="45.72"/><circle class="cls-1" cx="448.92" cy="245.13" r="45.72"/><circle class="cls-1" cx="340.72" cy="413.9" r="45.72" transform="translate(-61.28 59.22) rotate(-9.12)"/><circle class="cls-1" cx="340.72" cy="76.36" r="45.72"/><rect class="cls-2" x="202.33" y="216.77" width="92.67" height="60.99" rx="2.6"/><rect class="cls-3" x="219.19" y="201.95" width="58.94" height="90.63" rx="1.82" transform="translate(495.93 -1.4) rotate(90)"/><rect class="cls-1" x="206.91" y="221.54" width="83.51" height="51.84"/><path class="cls-3" d="M248,219.73a1,1,0,1,1,1,1A1,1,0,0,1,248,219.73Z"/><polygon class="cls-3" points="293.71 277.76 252.66 277.76 245.33 277.76 204.28 277.76 184.68 296.33 245.33 296.33 252.66 296.33 313.3 296.33 293.71 277.76"/><path class="cls-2" d="M184.68,296.33H313.3a0,0,0,0,1,0,0v3.48a2,2,0,0,1-2,2H186.79a2.1,2.1,0,0,1-2.1-2.1v-3.41A0,0,0,0,1,184.68,296.33Z"/><path class="cls-1" d="M259,299.69H238.72A1.68,1.68,0,0,1,237,298h0a1.68,1.68,0,0,1,1.68-1.68H259a1.68,1.68,0,0,1,1.68,1.68h0A1.68,1.68,0,0,1,259,299.69Z"/><path class="cls-3" d="M245.71,203.35a3.83,3.83,0,1,1,3.83,3.83A3.83,3.83,0,0,1,245.71,203.35Z"/><path class="cls-3" d="M229.45,183.27a28.38,28.38,0,0,1,40.17,0l3.08-3.08a32.72,32.72,0,0,0-46.33,0Z"/><path class="cls-3" d="M249.54,179.81a23.48,23.48,0,0,0-16.64,6.9l3.07,3.07a19.17,19.17,0,0,1,27.14,0l3.07-3.07A23.49,23.49,0,0,0,249.54,179.81Z"/><path class="cls-3" d="M249.54,189.49a13.81,13.81,0,0,0-9.8,4.06l3.07,3.07a9.51,9.51,0,0,1,13.46,0l3.07-3.07A13.82,13.82,0,0,0,249.54,189.49Z"/><rect class="cls-3" x="127.98" y="395.04" width="62.58" height="40.29"/><rect class="cls-1" x="131.06" y="397.55" width="56.92" height="35.26"/><path class="cls-3" d="M172.91,441.69c0,1.14-5.95,2.07-13.29,2.07s-13.28-.93-13.28-2.07,5.95-2.08,13.28-2.08S172.91,440.54,172.91,441.69Z"/><path class="cls-3" d="M159.62,441.69h0a2,2,0,0,1-2-2v-3.93a2,2,0,0,1,2-2h0a2,2,0,0,1,2,2v3.93A2,2,0,0,1,159.62,441.69Z"/><rect class="cls-4" x="29.63" y="217.46" width="39.7" height="60"/><rect class="cls-3" x="30.76" y="218.46" width="37.43" height="57.86"/><rect class="cls-1" x="31.96" y="221.85" width="35.03" height="48.25"/><path class="cls-3" d="M55.26,220.75H43.69a.64.64,0,0,1-.64-.64h0a.65.65,0,0,1,.64-.65H55.26a.65.65,0,0,1,.65.65h0A.65.65,0,0,1,55.26,220.75Z"/><path class="cls-1" d="M47.55,273.39a1.93,1.93,0,1,1,1.93,1.93A1.93,1.93,0,0,1,47.55,273.39Z"/><rect class="cls-3" x="130.5" y="62.36" width="57.54" height="34.1"/><rect class="cls-1" x="131.69" y="63.41" width="55.07" height="32"/><rect class="cls-3" x="130.41" y="75.11" width="57.63" height="8.6"/><circle class="cls-3" cx="159.23" cy="79.41" r="13.16"/><circle class="cls-3" cx="159.23" cy="79.41" r="11.76" transform="translate(-9.51 135.85) rotate(-45)"/><path class="cls-3" d="M150.56,79.41a8.67,8.67,0,1,1,8.67,8.67A8.67,8.67,0,0,1,150.56,79.41Z"/><path class="cls-1" d="M151.79,79.41a7.44,7.44,0,1,1,7.44,7.44A7.44,7.44,0,0,1,151.79,79.41Z"/><path class="cls-3" d="M137,58.55h4.29a2.18,2.18,0,0,1,2.18,2.18v2.68a0,0,0,0,1,0,0h-8.57a0,0,0,0,1,0,0V60.65A2.1,2.1,0,0,1,137,58.55Z"/><path class="cls-3" d="M171.77,58.55h9.34a2.18,2.18,0,0,1,2.18,2.18v2.68a0,0,0,0,1,0,0H169.67a0,0,0,0,1,0,0V60.65A2.1,2.1,0,0,1,171.77,58.55Z"/><rect class="cls-3" x="306.63" y="415.99" width="68.21" height="20.57" rx="5.17"/><rect class="cls-1" x="306.63" y="421.9" width="68.18" height="8.44"/><path class="cls-3" d="M316.51,426.28a1.88,1.88,0,1,1-1.88-1.88A1.88,1.88,0,0,1,316.51,426.28Z"/><path class="cls-3" d="M325.23,426.28a1.89,1.89,0,1,1-1.89-1.88A1.89,1.89,0,0,1,325.23,426.28Z"/><path class="cls-3" d="M333.94,426.28a1.88,1.88,0,1,1-1.88-1.88A1.88,1.88,0,0,1,333.94,426.28Z"/><path class="cls-3" d="M342.65,426.28a1.88,1.88,0,1,1-1.88-1.88A1.88,1.88,0,0,1,342.65,426.28Z"/><path class="cls-3" d="M351.37,426.28a1.88,1.88,0,1,1-1.88-1.88A1.88,1.88,0,0,1,351.37,426.28Z"/><path class="cls-3" d="M360.08,426.28a1.88,1.88,0,1,1-1.88-1.88A1.88,1.88,0,0,1,360.08,426.28Z"/><path class="cls-3" d="M368.8,426.28a1.88,1.88,0,1,1-1.88-1.88A1.88,1.88,0,0,1,368.8,426.28Z"/><path class="cls-3" d="M319,416h-3.57V390.25a1.78,1.78,0,0,1,1.78-1.78h0a1.79,1.79,0,0,1,1.79,1.78Z"/><path class="cls-3" d="M366,416H362.4V390.25a1.79,1.79,0,0,1,1.79-1.78h0a1.78,1.78,0,0,1,1.78,1.78Z"/><rect class="cls-3" x="419.21" y="231.51" width="59.43" height="31.25"/><rect class="cls-3" x="429.42" y="225.57" width="39.01" height="5.94"/><rect class="cls-4" x="434.79" y="216.42" width="28.25" height="15.09"/><path class="cls-1" d="M430.74,246h35.61a4.29,4.29,0,0,1,4.29,4.29v12.42a0,0,0,0,1,0,0h-44.2a0,0,0,0,1,0,0V250.34A4.29,4.29,0,0,1,430.74,246Z"/><rect class="cls-3" x="434.79" y="257.46" width="28.25" height="15.09"/><path class="cls-3" d="M464,259.41H433.85a2.39,2.39,0,0,1-2.39-2.38h0a2.39,2.39,0,0,1,2.39-2.38H464a2.39,2.39,0,0,1,2.39,2.38h0A2.39,2.39,0,0,1,464,259.41Z"/><path class="cls-3" d="M425.52,235.64a1.67,1.67,0,1,1-1.67-1.67A1.67,1.67,0,0,1,425.52,235.64Z"/><path class="cls-1" d="M475.85,235.64a1.67,1.67,0,1,1-1.67-1.67A1.67,1.67,0,0,1,475.85,235.64Z"/><path class="cls-3" d="M372.56,75.13a12.82,12.82,0,0,0-12.81-12.81l-.34,0a19.37,19.37,0,0,0-36.69,0c-.34,0-.68,0-1,0a12.81,12.81,0,0,0,0,25.62h38.74v0A12.81,12.81,0,0,0,372.56,75.13Z"/><rect class="cls-3" x="336.22" y="81.27" width="9.02" height="13.34"/><polygon class="cls-1" points="340.73 72.49 331.95 81.27 340.73 81.27 349.5 81.27 340.73 72.49"/><polygon class="cls-3" points="340.73 103.39 349.5 94.61 340.73 94.61 331.95 94.61 340.73 103.39"/><ellipse class="cls-1" cx="463.79" cy="120.19" rx="18.96" ry="14.27"/><polygon class="cls-1" points="453.68 129.32 451.11 136.94 461.78 133.41 453.68 129.32"/><polygon class="cls-1" points="457.68 364.36 445.92 356.21 445.92 376.12 457.68 364.36"/><polygon class="cls-1" points="479.5 356.2 447.91 356.2 463.71 367.15 479.5 356.2"/><polygon class="cls-1" points="468.78 365.03 463.71 368.54 458.63 365.02 445.92 377.74 445.92 379.49 481.49 379.49 481.49 377.74 468.78 365.03"/><polygon class="cls-1" points="481.49 356.21 469.73 364.37 481.49 376.13 481.49 356.21"/><path class="cls-1" d="M239.33,456.23a5.82,5.82,0,1,0,5.82,5.82A5.82,5.82,0,0,0,239.33,456.23Zm0,8.62a2.8,2.8,0,1,1,2.8-2.8A2.79,2.79,0,0,1,239.33,464.85Z"/><path class="cls-1" d="M237.45,456.6a14.06,14.06,0,0,1-.29-1.68c-.08-.56-.11-1.12-.17-1.68,0-.28-.1-.56-.13-.84a1.49,1.49,0,0,1,.16-.84,2.43,2.43,0,0,1,.66-.83l.26-.21.31-.21c.11-.07.26-.14.39-.21l.19-.11.24-.1h.52l.24.1.2.11c.13.07.28.14.39.21l.31.21.26.21a2.56,2.56,0,0,1,.66.83,1.58,1.58,0,0,1,.16.84c0,.28-.1.56-.14.84,0,.56-.08,1.12-.16,1.68a14.06,14.06,0,0,1-.29,1.68Z"/><path class="cls-1" d="M241.22,467.51a14.06,14.06,0,0,1,.29,1.68c.08.56.11,1.11.16,1.67,0,.28.11.56.14.84a1.58,1.58,0,0,1-.16.84,2.7,2.7,0,0,1-.66.84l-.26.21-.31.21c-.11.07-.26.14-.39.21l-.2.1-.24.11h-.52l-.24-.11-.19-.1c-.13-.07-.28-.14-.39-.21l-.31-.21-.26-.21a2.56,2.56,0,0,1-.66-.84,1.49,1.49,0,0,1-.16-.84c0-.28.1-.56.13-.84.06-.56.09-1.11.17-1.67a14.06,14.06,0,0,1,.29-1.68Z"/><path class="cls-1" d="M244.79,460.17a14.06,14.06,0,0,1,1.68-.29c.56-.08,1.12-.11,1.68-.17.27,0,.55-.1.83-.13a1.49,1.49,0,0,1,.84.16,2.56,2.56,0,0,1,.84.66l.21.26c.07.09.14.21.21.31s.14.26.21.38l.11.2.1.24v.52l-.1.24-.11.2a4.32,4.32,0,0,1-.21.38l-.21.32-.21.26a2.86,2.86,0,0,1-.84.66,1.58,1.58,0,0,1-.84.16c-.28,0-.56-.1-.83-.14-.56-.05-1.12-.09-1.68-.16a16.4,16.4,0,0,1-1.68-.29Z"/><path class="cls-1" d="M233.88,463.94a16.4,16.4,0,0,1-1.68.29c-.56.07-1.12.11-1.68.16-.28,0-.56.11-.84.14a1.53,1.53,0,0,1-.83-.16,2.86,2.86,0,0,1-.84-.66l-.21-.26-.21-.32a4.32,4.32,0,0,1-.21-.38l-.11-.2-.1-.24v-.52l.1-.24.11-.2c.07-.12.14-.27.21-.38s.14-.22.21-.31l.21-.26a2.56,2.56,0,0,1,.84-.66,1.44,1.44,0,0,1,.83-.16c.28,0,.56.1.84.13.56.06,1.12.09,1.68.17a14.06,14.06,0,0,1,1.68.29Z"/><path class="cls-1" d="M241.86,456.86a15.1,15.1,0,0,1,1-1.39c.34-.45.71-.87,1.07-1.3.17-.23.32-.47.5-.69a1.52,1.52,0,0,1,.7-.48,2.66,2.66,0,0,1,1.06-.13l.34,0,.37.07.42.12.21.07.24.1.37.36.1.25.06.21c0,.14.1.29.13.42s.05.26.07.37l0,.33a2.63,2.63,0,0,1-.12,1.06,1.57,1.57,0,0,1-.48.71c-.22.18-.47.33-.69.5-.43.35-.85.73-1.3,1.07a15.85,15.85,0,0,1-1.4,1Z"/><path class="cls-1" d="M236.81,467.24c-.31.49-.63.95-1,1.4s-.71.86-1.07,1.3c-.17.22-.32.47-.5.69a1.66,1.66,0,0,1-.71.48,2.63,2.63,0,0,1-1.06.12l-.33,0-.37-.08c-.12,0-.28-.08-.42-.12l-.21-.06-.25-.1-.36-.37-.1-.24-.06-.22c0-.13-.1-.29-.13-.42s0-.25-.07-.36l0-.34a2.85,2.85,0,0,1,.13-1.06,1.47,1.47,0,0,1,.48-.7c.22-.18.46-.33.69-.5.43-.36.85-.73,1.3-1.07a15.1,15.1,0,0,1,1.39-1Z"/><path class="cls-1" d="M244.52,464.58a14,14,0,0,1,1.4,1c.45.34.87.71,1.3,1.07.22.17.47.32.69.5a1.54,1.54,0,0,1,.48.7,2.67,2.67,0,0,1,.12,1.06l0,.34c0,.11,0,.24-.07.36s-.09.29-.13.42l-.06.22-.1.24-.37.37-.24.1-.21.06c-.14,0-.3.1-.42.12l-.37.08-.34,0a2.67,2.67,0,0,1-1.06-.12,1.69,1.69,0,0,1-.7-.48c-.18-.22-.33-.47-.5-.69-.36-.44-.73-.86-1.07-1.3a15.25,15.25,0,0,1-1-1.4Z"/><path class="cls-1" d="M234.14,459.53c-.48-.31-.95-.63-1.39-1s-.87-.72-1.3-1.07c-.23-.17-.47-.32-.69-.5a1.5,1.5,0,0,1-.48-.71,2.8,2.8,0,0,1-.13-1.06l0-.33c0-.11.05-.25.07-.37s.09-.28.13-.42l.06-.21.1-.25.36-.36.25-.1.21-.07.42-.12.37-.07.33,0a2.61,2.61,0,0,1,1.06.13,1.5,1.5,0,0,1,.71.48c.18.22.33.46.5.69.36.43.73.85,1.07,1.3s.67.91,1,1.39Z"/><path class="cls-1" d="M263.31,462.53a6.55,6.55,0,1,0,3.89,8.41A6.56,6.56,0,0,0,263.31,462.53Zm-3.87,10.54a4.68,4.68,0,1,1,6-2.78A4.68,4.68,0,0,1,259.44,473.07Z"/><path class="cls-1" d="M260.18,471.05a2.53,2.53,0,1,1,3.25-1.5A2.52,2.52,0,0,1,260.18,471.05Z"/><polygon class="cls-1" points="265.08 459.74 263.34 459.1 262.23 459.43 260.97 462.86 264.45 464.13 265.71 460.71 265.08 459.74"/><polygon class="cls-1" points="256.59 477.46 258.34 478.11 259.45 477.77 260.7 474.35 257.22 473.07 255.97 476.49 256.59 477.46"/><polygon class="cls-1" points="269.7 472.85 270.34 471.1 270 469.99 266.58 468.73 265.3 472.22 268.73 473.47 269.7 472.85"/><polygon class="cls-1" points="251.97 464.35 251.33 466.1 251.67 467.21 255.09 468.47 256.37 464.98 252.95 463.73 251.97 464.35"/><polygon class="cls-1" points="270.11 465.34 269.32 463.65 268.3 463.1 264.99 464.63 266.55 468 269.86 466.47 270.11 465.34"/><polygon class="cls-1" points="251.57 471.87 252.35 473.55 253.38 474.1 256.68 472.57 255.12 469.2 251.82 470.73 251.57 471.87"/><polygon class="cls-1" points="264.1 477.87 265.79 477.09 266.34 476.06 264.81 472.76 261.44 474.31 262.97 477.62 264.1 477.87"/><polygon class="cls-1" points="257.57 459.33 255.88 460.11 255.34 461.14 256.87 464.44 260.24 462.88 258.71 459.58 257.57 459.33"/><path class="cls-1" d="M33.05,348.58a13.49,13.49,0,0,0-13.48,13.48c0,7.44,13.48,25.72,13.48,25.72s13.47-18.28,13.47-25.72A13.48,13.48,0,0,0,33.05,348.58Zm0,18.12a4.64,4.64,0,1,1,4.64-4.64A4.64,4.64,0,0,1,33.05,366.7Z"/><circle class="cls-1" cx="26.1" cy="107.24" r="5.62"/><circle class="cls-1" cx="26.1" cy="133.15" r="5.62"/><path class="cls-1" d="M50.19,120.19a5.62,5.62,0,1,1-5.62-5.61A5.61,5.61,0,0,1,50.19,120.19Z"/><polygon class="cls-1" points="26.75 134.08 25.44 132.21 42.58 120.19 25.44 108.18 26.75 106.31 46.56 120.19 26.75 134.08"/><path class="cls-1" d="M237.62,23.1V45.28H259.8V23.1Zm12.11,13.8v2.7h-2V36.86a3.43,3.43,0,1,1,2,0Z"/><path class="cls-1" d="M255.35,13.19a9.62,9.62,0,0,0-13.28,0c-3.08,3.38-2.6,8.72-2.59,8.84v7h2.29V21.92c0-.05-.4-4.55,2-7.2a7.36,7.36,0,0,1,9.89,0c2.4,2.63,2,7.15,2,7.31v7h2.28V22.14C258,21.91,258.43,16.57,255.35,13.19Z"/><path class="cls-1" d="M133.86,245.2c-13.26,0-31.53,0-32.68,0v-2c.43,0,42.9.09,46.13,0l.05,2C146.25,245.19,140.73,245.2,133.86,245.2Z"/><rect class="cls-1" x="189.28" y="119.14" width="1.97" height="38.59" transform="translate(-43.28 109.81) rotate(-29.05)"/><rect class="cls-1" x="176.1" y="353.25" width="40.61" height="1.97" transform="translate(-208.2 373.02) rotate(-63.65)"/><path class="cls-1" d="M364.65,245.2c-7.17,0-12.92,0-14,0l.05-2c3.24.09,47.7,0,48.15,0v2C397.62,245.16,378.49,245.2,364.65,245.2Z"/><rect class="cls-1" x="289.54" y="137.45" width="38.59" height="1.97" transform="translate(37.79 341.1) rotate(-60.93)"/><rect class="cls-1" x="301.83" y="333.91" width="1.97" height="41.13" transform="translate(-125.78 171.03) rotate(-26.32)"/><rect class="cls-1" x="48.36" y="323.22" width="118.81" height="1.97" transform="translate(-144.48 93.79) rotate(-29.2)"/><rect class="cls-1" x="48.28" y="322.91" width="120.06" height="1.97" transform="translate(-144.26 94.02) rotate(-29.2)"/><rect class="cls-1" x="13.23" y="316.29" width="47.12" height="1.97" transform="translate(-282.62 317.06) rotate(-83.35)"/><rect class="cls-1" x="77.71" y="366.28" width="1.97" height="64.06" transform="translate(-326.98 381.56) rotate(-76.46)"/><rect class="cls-1" x="101.74" y="280.74" width="1.97" height="100.52" transform="translate(-168.74 115.55) rotate(-34.32)"/><rect class="cls-1" x="388.18" y="264.4" width="1.97" height="119.35" transform="translate(-83.56 505.74) rotate(-60.81)"/><rect class="cls-1" x="462.67" y="293.72" width="1.97" height="47.12" transform="translate(-33.55 55.69) rotate(-6.63)"/><rect class="cls-1" x="389.76" y="397.64" width="61.42" height="1.97" transform="translate(-81.68 109.59) rotate(-13.55)"/><rect class="cls-1" x="347.46" y="330.01" width="100.52" height="1.97" transform="translate(-99.92 472.75) rotate(-55.67)"/><rect class="cls-1" x="333.38" y="165.39" width="117.17" height="1.97" transform="translate(-31.34 212.49) rotate(-29.22)"/><rect class="cls-1" x="331.02" y="166" width="119.69" height="1.97" transform="translate(-31.78 212.04) rotate(-29.22)"/><rect class="cls-1" x="439.08" y="170.77" width="49.42" height="1.97" transform="translate(239.74 612.67) rotate(-83.38)"/><rect class="cls-1" x="418.28" y="61.79" width="1.97" height="58.94" transform="translate(232.38 477.5) rotate(-76.46)"/><rect class="cls-1" x="396.74" y="108.92" width="1.97" height="100.52" transform="translate(-20.5 251.96) rotate(-34.32)"/><rect class="cls-1" x="107.45" y="104.64" width="1.97" height="119.78" transform="translate(-88.08 178.98) rotate(-60.82)"/><rect class="cls-1" x="35.68" y="147.18" width="1.97" height="49.28" transform="translate(-19.61 5.39) rotate(-6.63)"/><rect class="cls-1" x="49.27" y="90.57" width="61.42" height="1.97" transform="translate(-19.23 21.3) rotate(-13.56)"/><rect class="cls-1" x="52.46" y="158.2" width="100.52" height="1.97" transform="translate(-86.66 154.3) rotate(-55.69)"/><rect class="cls-1" x="248.01" y="55.31" width="1.97" height="87.21"/><rect class="cls-1" x="197.93" y="39.28" width="25.91" height="1.97" transform="translate(7.76 109.79) rotate(-29.7)"/><rect class="cls-1" x="286.42" y="27.18" width="1.97" height="27.77" transform="translate(109.37 270.39) rotate(-60.31)"/><rect class="cls-1" x="209.28" y="78.43" width="81.35" height="1.97"/><rect class="cls-1" x="249.12" y="345.83" width="1.97" height="89.86"/><rect class="cls-1" x="273.06" y="447.69" width="28.26" height="1.97" transform="translate(-184.45 200.99) rotate(-29.67)"/><rect class="cls-1" x="211.17" y="434.96" width="1.97" height="25.19" transform="translate(-281.72 410.16) rotate(-60.31)"/><rect class="cls-1" x="209.37" y="407.96" width="81.5" height="1.97"/></g></g></svg>