<svg xmlns="http://www.w3.org/2000/svg" viewBox="0 0 386.93 85"><defs><style>.cls-1,.cls-2{fill:#fff;}.cls-2{fill-rule:evenodd;}</style></defs><g id="Layer_2" data-name="Layer 2"><g id="Layer_1-2" data-name="Layer 1"><g id="Layer_2-2" data-name="Layer 2"><g id="Layer_1-2-2" data-name="Layer 1-2"><g id="Layer_2-2-2" data-name="Layer 2-2"><g id="Layer_1-2-2-2" data-name="Layer 1-2-2"><path class="cls-1" d="M174.54,0H120.16V81.63h16.26v-34h31.45V31.36H136.46V16.27h38.08Z"/><path class="cls-1" d="M230.9,31.44H216V56a14,14,0,0,1-3.26,9.06,11.23,11.23,0,0,1-8.11,3.87,11.71,11.71,0,0,1-8.31-3.87A14.81,14.81,0,0,1,193.17,56V31.44H178.26V56.36c0,14.79,12.66,26.69,26.36,26.69s26.32-11.89,26.32-26.67Z"/><path class="cls-1" d="M250.58,31.44h-11.3V81.63h14.55V53.94A13.21,13.21,0,0,1,269.3,43.48a12.79,12.79,0,0,1,3.16,1l5.71-12.93a26,26,0,0,0-8.48-1.43c-6.64,0-13.27,2.1-17,7Z"/><path class="cls-2" d="M279.11,72.58l-.13.14-.11.15-.1.17a.89.89,0,0,0-.08.17l-.06.18a.54.54,0,0,0,0,.18.61.61,0,0,0,0,.19v.75l.07.18c0,.06.05.12.07.17l.11.16.11.16a.73.73,0,0,0,.13.13Q288.78,85,304.36,85a21.1,21.1,0,0,0,14.39-5.34q6.09-5.31,6.08-12.34,0-12.85-15.09-17.33c-.78-.27-1.9-.62-3.36-1.06q-6.24-1.87-6-3.21h0c.22-1.65,1.29-2.46,3.19-2.41q4.29.09,10.88,4.79l.17.11.16.08.18.06.18.06h.57a.6.6,0,0,0,.19,0h.18l.18-.06.17-.07.17-.1.17-.1.13-.13.14-.14.12-.14,0-.09L324,36.94l.08-.16a.53.53,0,0,1,.08-.17l.06-.19,0-.18v-.76a.54.54,0,0,0,0-.18l-.07-.18-.09-.17-.1-.16a.35.35,0,0,0-.12-.15l-.13-.15-.14-.12-.16-.11h0a40.26,40.26,0,0,0-21-6.21,21,21,0,0,0-13.7,4.61,15.58,15.58,0,0,0-6.11,12.52q0,7.57,5.33,11.86,3.67,3,12.57,5.72c4,1.23,6,2.64,6,4.2a2,2,0,0,1-.95,1.8,5.54,5.54,0,0,1-3.42.54c-3.93-.36-7.52-2.39-10.73-6.07l-.13-.13a.44.44,0,0,0-.15-.12.58.58,0,0,0-.15-.11l-.17-.1-.17-.07-.19-.06h-1.12l-.18.07-.17.09-.15.1-.16.12-.1.1Zm4.16,1.31q8.25,7.2,21.09,7.2a17.4,17.4,0,0,0,11.82-4.37q4.77-4.16,4.75-9.42,0-10-12.35-13.62h-.07c-.74-.25-1.82-.59-3.27-1a30.85,30.85,0,0,1-5.94-2.24c-2.21-1.29-3.14-3-2.8-5.25q.78-5.89,7.11-5.78,4.89.11,11.37,4.36l4.58-7.18a35.56,35.56,0,0,0-17.29-4.68A17.19,17.19,0,0,0,291,35.63a11.86,11.86,0,0,0-4.63,9.57,10.75,10.75,0,0,0,3.88,8.85q3.12,2.46,11.31,5a23.16,23.16,0,0,1,5.56,2.31,6.4,6.4,0,0,1,3.15,5.6,5.6,5.6,0,0,1-2.78,5.14,9.18,9.18,0,0,1-5.85,1.11,19.23,19.23,0,0,1-11.87-5.85Z"/><path class="cls-2" d="M373.89,29.5a1.71,1.71,0,0,0-.32,0l-.31.08-.29.13a2.11,2.11,0,0,0-.27.18,1.65,1.65,0,0,0-.24.22l-.2.25a1.59,1.59,0,0,0-.15.29,1.18,1.18,0,0,1-.1.3l-.44,1.92A28.56,28.56,0,1,0,355.4,85h.1a27.77,27.77,0,0,0,15.29-4.38v1.23a.61.61,0,0,0,0,.19v.18a.28.28,0,0,0,.06.18c.06.07,0,.12.09.17l.09.17.11.14.13.15.15.13.15.11.16.1.18.08.18.07H385.6l.18-.07.17-.08.16-.1.15-.11.15-.13a1.82,1.82,0,0,0,.12-.15,1.74,1.74,0,0,1,.12-.14l.09-.17.09-.17.1-.21V30.88c0-.06-.05-.12-.07-.19l-.08-.16a.54.54,0,0,0-.1-.16.61.61,0,0,0-.12-.16.53.53,0,0,0-.12-.14l-.14-.13-.16-.11-.16-.1-.17-.08-.18-.07H373.89Zm1.53,3.89-.8,3.3-.06.18a.67.67,0,0,1-.07.18.51.51,0,0,1-.09.16.57.57,0,0,1-.11.16l-.11.15-.14.13a.44.44,0,0,1-.15.12.58.58,0,0,1-.15.11l-.17.1-.18.07-.18.06h-.94a1.87,1.87,0,0,1-.79-.41A24.67,24.67,0,1,0,355.4,81.11h.1a24,24,0,0,0,16-5.82l.14-.12.16-.09A.56.56,0,0,1,372,75l.18-.07a.54.54,0,0,1,.18,0h.38a.6.6,0,0,1,.19,0h.37l.19.07.17.08a1.1,1.1,0,0,1,.31.2l.15.12.13.15a.83.83,0,0,1,.19.27,1.77,1.77,0,0,1,.15.31,2,2,0,0,1,.09.33,1.93,1.93,0,0,1,0,.34v3h8.47V33.39ZM368,67.49a15.33,15.33,0,0,0,4.37-11,15,15,0,0,0-4.39-11A14.11,14.11,0,0,0,357.39,41a14.63,14.63,0,0,0-10.69,4.52h0a15.51,15.51,0,0,0-4.41,11,15.9,15.9,0,0,0,4.35,11l.06.06a14.55,14.55,0,0,0,10.69,4.53A14.11,14.11,0,0,0,368,67.51Zm.49-11a11.59,11.59,0,0,1-3.3,8.32h0a10.42,10.42,0,0,1-7.8,3.35,10.86,10.86,0,0,1-7.91-3.35,12.08,12.08,0,0,1-3.31-8.32,11.72,11.72,0,0,1,3.29-8.32,10.86,10.86,0,0,1,7.93-3.37,10.39,10.39,0,0,1,7.8,3.36h0a11.13,11.13,0,0,1,3.27,8.35Z"/><path class="cls-2" d="M73.38,0A11.61,11.61,0,0,1,85,11.58v61.8a11.59,11.59,0,0,1-23.18,0V11.58A11.58,11.58,0,0,1,73.35,0Zm0,7.71a3.85,3.85,0,0,0-3.86,3.84h0V73.38a3.86,3.86,0,0,0,7.71,0V11.58A3.87,3.87,0,0,0,73.38,7.71Z"/><path class="cls-2" d="M42.49,72.1A11.56,11.56,0,0,1,30.9,60.6V24.46a11.59,11.59,0,1,1,23.18-.63V60.51A11.59,11.59,0,0,1,42.51,72.1Zm0-51.5a3.87,3.87,0,0,0-3.87,3.84V60.51a3.86,3.86,0,0,0,7.71,0v-36a3.88,3.88,0,0,0-3.86-3.86Z"/><path class="cls-2" d="M0,37.34a11.59,11.59,0,1,1,23.18-.63v10.9A11.59,11.59,0,1,1,0,47.64H0Zm11.59-3.87a3.85,3.85,0,0,0-3.88,3.82h0V47.61a3.86,3.86,0,1,0,7.69.73,1.62,1.62,0,0,0,0-.22,2.18,2.18,0,0,0,0-.51V37.34a3.89,3.89,0,0,0-3.86-3.87Z"/><rect class="cls-1" x="99.04" width="2.42" height="84.97"/></g></g></g></g></g></g></svg>