<?xml version="1.0" encoding="iso-8859-1"?>
<!-- Generator: Adobe Illustrator 19.0.0, SVG Export Plug-In . SVG Version: 6.00 Build 0)  -->
<svg version="1.1" id="Capa_1" xmlns="http://www.w3.org/2000/svg" xmlns:xlink="http://www.w3.org/1999/xlink" x="0px" y="0px"
	 viewBox="0 0 490.667 490.667" style="enable-background:new 0 0 490.667 490.667;" xml:space="preserve">
<path style="fill:#CFD8DC;" d="M437.333,149.333h-384c-5.891,0-10.667,4.776-10.667,10.667v64
	c0,111.93,90.737,202.667,202.667,202.667S448,335.93,448,224v-64C448,154.109,443.224,149.333,437.333,149.333z"/>
<circle style="fill:#607D8B;" cx="245.333" cy="288" r="96"/>
<circle style="fill:#00BCD4;" cx="245.333" cy="288" r="53.333"/>
<path style="fill:#455A64;" d="M480,64H10.667C4.776,64,0,68.776,0,74.667v64c0,17.673,14.327,32,32,32h426.667
	c17.673,0,32-14.327,32-32v-64C490.667,68.776,485.891,64,480,64z"/>
<circle style="fill:#F44336;" cx="373.333" cy="224" r="10.667"/>
<g>
</g>
<g>
</g>
<g>
</g>
<g>
</g>
<g>
</g>
<g>
</g>
<g>
</g>
<g>
</g>
<g>
</g>
<g>
</g>
<g>
</g>
<g>
</g>
<g>
</g>
<g>
</g>
<g>
</g>
</svg>
