<svg id="a1a48bd0-b94d-454b-8aaf-a1478b85e7f7" data-name="Layer 1" xmlns="http://www.w3.org/2000/svg" width="931.56299" height="512.801" viewBox="0 0 931.56299 512.801">
<polygon points="344.607 337.123 336.695 326.95 341.296 323.371 345.043 328.188 357.699 314.827 361.932 318.837 344.607 337.123" fill="#fff"/><path d="M986.01772,278.199h-393v-84h393Z" transform="translate(-133.7185 -194.199)" fill="#fff"/><circle cx="510.22347" cy="42" r="21.33847" fill="#536dfe"/>
<path d="M693.22364,221.97335a3.55641,3.55641,0,0,0,0,7.11282H952.883a3.55642,3.55642,0,0,0,0-7.11282Z" transform="translate(-133.7185 -194.199)" fill="#3f3d56"/>
<path d="M693.22364,243.31177a3.55641,3.55641,0,0,0-.015,7.11281H857.368a3.55641,3.55641,0,1,0,0-7.11281Z" transform="translate(-133.7185 -194.199)" fill="#3f3d56"/><path d="M986.01772,278.199h-393v-84h393Zm-387-6h381v-72h-381Z" transform="translate(-133.7185 -194.199)" fill="#ccc"/><path d="M986.01772,383.199h-393v-84h393Z" transform="translate(-133.7185 -194.199)" fill="#fff"/><circle cx="510.22347" cy="147" r="21.33847" fill="#e6e6e6"/><path d="M693.22364,326.97335a3.55641,3.55641,0,0,0,0,7.11282H952.883a3.55642,3.55642,0,0,0,0-7.11282Z" transform="translate(-133.7185 -194.199)" fill="#e6e6e6"/><path d="M693.22364,348.31177a3.55641,3.55641,0,0,0-.015,7.11281H857.368a3.55641,3.55641,0,1,0,0-7.11281Z" transform="translate(-133.7185 -194.199)" fill="#e6e6e6"/><path d="M986.01772,383.199h-393v-84h393Zm-387-6h381v-72h-381Z" transform="translate(-133.7185 -194.199)" fill="#e6e6e6"/><path d="M986.01772,488.199h-393v-84h393Z" transform="translate(-133.7185 -194.199)" fill="#fff"/><circle cx="510.22347" cy="252" r="21.33847" fill="#e6e6e6"/><path d="M693.22364,431.97335a3.55641,3.55641,0,0,0,0,7.11282H952.883a3.55642,3.55642,0,0,0,0-7.11282Z" transform="translate(-133.7185 -194.199)" fill="#e6e6e6"/><path d="M693.22364,453.31177a3.55641,3.55641,0,0,0-.015,7.11281H857.368a3.55641,3.55641,0,1,0,0-7.11281Z" transform="translate(-133.7185 -194.199)" fill="#e6e6e6"/><path d="M986.01772,488.199h-393v-84h393Zm-387-6h381v-72h-381Z" transform="translate(-133.7185 -194.199)" fill="#e6e6e6"/>
<circle cx="905.12667" cy="41.96388" r="26.43632" fill="#536dfe"/><polygon points="902.607 53.123 894.695 42.95 899.296 39.371 903.043 44.188 915.699 30.827 919.932 34.837 902.607 53.123" fill="#fff"/>
</svg>
