<svg id="ee370ff1-147c-4ceb-b530-4ba4072ed128" data-name="Layer 1" xmlns="http://www.w3.org/2000/svg" width="700.12205" height="441.4453" viewBox="0 0 800.12205 541.4453"><path d="M931.831,368.72265c-.83984.69-1.68017,1.35-2.54,2H717.15087q-2.37012-.975-4.71973-2a249.80684,249.80684,0,0,1-61.87012-38.52c-12.37011-10.48-23.75-21.3-32-31.44-11.50976-14.15-22.10986-29.57-27.04-47.13995-4.91992-17.57-3.45019-37.71,7.54-52.28a46.79519,46.79519,0,0,1,12.3501-11.31c.79-.5,1.58985-.98,2.40967-1.43,13.18018-7.4,29.81006-9.2,44.65039-5.37,21.25,5.49,38.90967,20.82,51.50977,38.8,12.60009,17.97,20.78027,38.61,28.83984,59.02,8.18018-36.43,32.95019-69.06,66.41016-85.65,33.45019-16.59,75.01025-16.39,107.75,1.58a108.29189,108.29189,0,0,1,27.55029,21.7c.78955.85,1.56006,1.72,2.31982,2.6,15.96973,18.49,25.96,42.17,26.77979,66.59C970.68114,317.33264,956.10106,348.93267,931.831,368.72265Z" transform="translate(-199.93898 -179.27735)" fill="#f2f2f2"/><path d="M725.63085,370.72265h-3c-.03955-.67-.08985-1.33-.1499-2a224.18,224.18,0,0,0-6.56006-38.74,238.8167,238.8167,0,0,0-38.31006-80.46,228.5998,228.5998,0,0,0-65.5-60.46,1.42,1.42,0,0,1-.69971-1.03,1.49571,1.49571,0,0,1,2.21-1.56,2.25584,2.25584,0,0,1,.19971.13,226.457,226.457,0,0,1,40.12012,31.12,240.89806,240.89806,0,0,1,51.71,74.13,233.59238,233.59238,0,0,1,19.82031,76.87C725.53124,369.39263,725.581,370.06268,725.63085,370.72265Z" transform="translate(-199.93898 -179.27735)" fill="#fff"/><path d="M942.85106,219.28265a.18442.18442,0,0,1-.06982.02c-2.18994.4-4.39014.82-6.57031,1.27a296.83934,296.83934,0,0,0-52.33008,15.89,308.80792,308.80792,0,0,0-48.5,25,313.78428,313.78428,0,0,0-43.44971,33.08,307.5251,307.5251,0,0,0-36.99023,40.12,297.483,297.483,0,0,0-22.60987,34.06c-.37988.66-.75,1.33-1.12011,2h-3.42969c.35986-.67.73-1.34,1.10986-2a299.923,299.923,0,0,1,27.98-41.33,310.83961,310.83961,0,0,1,38.31006-39.75,317.8396,317.8396,0,0,1,44.37988-32.28,311.85339,311.85339,0,0,1,49.52-24.16,297.10379,297.10379,0,0,1,51.4502-14.52c.48974-.09.96973-.18,1.46-.27C943.86083,216.07263,944.66112,218.89263,942.85106,219.28265Z" transform="translate(-199.93898 -179.27735)" fill="#fff"/>
<path d="M983.061,368.72265h-482a17.02412,17.02412,0,0,0-17,17v186a17.02411,17.02411,0,0,0,17,17h482a17.0241,17.0241,0,0,0,17-17v-186A17.02411,17.02411,0,0,0,983.061,368.72265Zm15,203a15.01828,15.01828,0,0,1-15,15h-482a15.01828,15.01828,0,0,1-15-15v-186a15.01828,15.01828,0,0,1,15-15h482a15.01828,15.01828,0,0,1,15,15Z" transform="translate(-199.93898 -179.27735)" fill="#3f3d56"/><path d="M588.5747,536.72265a58,58,0,1,1,58-58A58.06566,58.06566,0,0,1,588.5747,536.72265Zm0-114a56,56,0,1,0,56,56A56.06353,56.06353,0,0,0,588.5747,422.72265Z" transform="translate(-199.93898 -179.27735)" fill="#3f3d56"/><path d="M940.04724,441.72265h-231a12.4967,12.4967,0,0,0-12.48,12.01,4.01078,4.01078,0,0,0-.02.49,12.51762,12.51762,0,0,0,12.5,12.5h231a12.5,12.5,0,0,0,0-25Z" transform="translate(-199.93898 -179.27735)" fill="#ccc"/><path d="M940.04724,490.72265h-231a12.4967,12.4967,0,0,0-12.48,12.01,4.01078,4.01078,0,0,0-.02.49,12.51762,12.51762,0,0,0,12.5,12.5h231a12.5,12.5,0,0,0,0-25Z" transform="translate(-199.93898 -179.27735)" fill="#ccc"/><path d="M582.10406,504.06438a7.45991,7.45991,0,0,1-4.48864-1.491l-.08027-.06027-16.904-12.94229a7.51006,7.51006,0,1,1,9.13524-11.92273l10.94913,8.39563,25.87453-33.74415a7.50978,7.50978,0,0,1,10.52941-1.38993l-.16087.21843.165-.21525a7.51849,7.51849,0,0,1,1.38994,10.52948L588.07894,501.1335A7.5131,7.5131,0,0,1,582.10406,504.06438Z" transform="translate(-199.93898 -179.27735)" fill="#f82b60"/>
</svg>
