<svg height="280pt" viewBox="0 0 480 480" width="280pt" xmlns="http://www.w3.org/2000/svg"><path d="m72 56c0 8.835938-7.164062 16-16 16s-16-7.164062-16-16 7.164062-16 16-16 16 7.164062 16 16zm0 0" fill="#78b9eb"/><path d="m192 56c0 8.835938-7.164062 16-16 16s-16-7.164062-16-16 7.164062-16 16-16 16 7.164062 16 16zm0 0" fill="#78b9eb"/><path d="m320 56c0 8.835938-7.164062 16-16 16s-16-7.164062-16-16 7.164062-16 16-16 16 7.164062 16 16zm0 0" fill="#78b9eb"/><path d="m440 56c0 8.835938-7.164062 16-16 16s-16-7.164062-16-16 7.164062-16 16-16 16 7.164062 16 16zm0 0" fill="#78b9eb"/><path d="m448 360c0 8.835938-7.164062 16-16 16s-16-7.164062-16-16 7.164062-16 16-16 16 7.164062 16 16zm0 0" fill="#78b9eb"/><path d="m40 352h224v48h-224zm0 0" fill="#78b9eb"/><path d="m424 32c-13.253906 0-24 10.746094-24 24s10.746094 24 24 24 24-10.746094 24-24-10.746094-24-24-24zm0 32c-4.417969 0-8-3.582031-8-8s3.582031-8 8-8 8 3.582031 8 8-3.582031 8-8 8zm0 0" fill="#78b9eb"/><g fill="#1a6fb0"><path d="m56 32c-13.253906 0-24 10.746094-24 24s10.746094 24 24 24 24-10.746094 24-24-10.746094-24-24-24zm0 32c-4.417969 0-8-3.582031-8-8s3.582031-8 8-8 8 3.582031 8 8-3.582031 8-8 8zm0 0"/><path d="m176 32c-13.253906 0-24 10.746094-24 24s10.746094 24 24 24 24-10.746094 24-24-10.746094-24-24-24zm0 32c-4.417969 0-8-3.582031-8-8s3.582031-8 8-8 8 3.582031 8 8-3.582031 8-8 8zm0 0"/><path d="m304 32c-13.253906 0-24 10.746094-24 24s10.746094 24 24 24 24-10.746094 24-24-10.746094-24-24-24zm0 32c-4.417969 0-8-3.582031-8-8s3.582031-8 8-8 8 3.582031 8 8-3.582031 8-8 8zm0 0"/><path d="m424 32c-13.253906 0-24 10.746094-24 24s10.746094 24 24 24 24-10.746094 24-24-10.746094-24-24-24zm0 32c-4.417969 0-8-3.582031-8-8s3.582031-8 8-8 8 3.582031 8 8-3.582031 8-8 8zm0 0"/><path d="m432 384c13.253906 0 24-10.746094 24-24s-10.746094-24-24-24-24 10.746094-24 24 10.746094 24 24 24zm0-32c4.417969 0 8 3.582031 8 8s-3.582031 8-8 8-8-3.582031-8-8 3.582031-8 8-8zm0 0"/><path d="m40 408h224c4.417969 0 8-3.582031 8-8v-48c0-4.417969-3.582031-8-8-8h-224c-4.417969 0-8 3.582031-8 8v48c0 4.417969 3.582031 8 8 8zm8-48h208v32h-208zm0 0"/><path d="m288 344h16v16h-16zm0 0"/><path d="m320 344h16v16h-16zm0 0"/><path d="m352 344h16v16h-16zm0 0"/><path d="m288 368h16v16h-16zm0 0"/><path d="m320 368h16v16h-16zm0 0"/><path d="m352 368h16v16h-16zm0 0"/><path d="m288 392h16v16h-16zm0 0"/><path d="m320 392h16v16h-16zm0 0"/><path d="m352 392h16v16h-16zm0 0"/><path d="m384 344h16v16h-16zm0 0"/><path d="m384 368h16v16h-16zm0 0"/><path d="m384 392h16v16h-16zm0 0"/><path d="m320 272c13.253906 0 24-10.746094 24-24v-16h64c13.253906 0 24-10.746094 24-24v-96h24c13.253906 0 24-10.746094 24-24v-64c0-13.253906-10.746094-24-24-24h-64c-13.253906 0-24 10.746094-24 24v64c0 13.253906 10.746094 24 24 24h24v96c0 4.417969-3.582031 8-8 8h-64v-16c0-13.253906-10.746094-24-24-24h-8v-64h24c13.253906 0 24-10.746094 24-24v-64c0-13.253906-10.746094-24-24-24h-64c-13.253906 0-24 10.746094-24 24v64c0 13.253906 10.746094 24 24 24h24v64h-112v-64h24c13.253906 0 24-10.746094 24-24v-64c0-13.253906-10.746094-24-24-24h-64c-13.253906 0-24 10.746094-24 24v64c0 13.253906 10.746094 24 24 24h24v64h-8c-13.253906 0-24 10.746094-24 24v16h-64c-4.417969 0-8-3.582031-8-8v-96h24c13.253906 0 24-10.746094 24-24v-64c0-13.253906-10.746094-24-24-24h-64c-13.253906 0-24 10.746094-24 24v64c0 13.253906 10.746094 24 24 24h24v96c0 13.253906 10.746094 24 24 24h64v16c0 13.253906 10.746094 24 24 24h72v32h-206.894531c-13.859375.011719-25.0937502 11.246094-25.105469 25.105469v93.789062c.0117188 13.859375 11.246094 25.09375 25.105469 25.105469h24.648437l6.484375 25.9375c.890625 3.5625 4.089844 6.0625 7.761719 6.0625h32c3.671875 0 6.871094-2.5 7.761719-6.0625l6.484375-25.9375h259.507812l6.484375 25.9375c.890625 3.5625 4.089844 6.0625 7.761719 6.0625h32c3.671875 0 6.871094-2.5 7.761719-6.0625l6.484375-25.9375h24.648437c13.859375-.011719 25.09375-11.246094 25.105469-25.105469v-93.789062c-.011719-13.859375-11.246094-25.09375-25.105469-25.105469h-206.894531v-32zm64-184v-64c0-4.417969 3.582031-8 8-8h64c4.417969 0 8 3.582031 8 8v64c0 4.417969-3.582031 8-8 8h-64c-4.417969 0-8-3.582031-8-8zm-120 0v-64c0-4.417969 3.582031-8 8-8h64c4.417969 0 8 3.582031 8 8v64c0 4.417969-3.582031 8-8 8h-64c-4.417969 0-8-3.582031-8-8zm-128 0v-64c0-4.417969 3.582031-8 8-8h64c4.417969 0 8 3.582031 8 8v64c0 4.417969-3.582031 8-8 8h-64c-4.417969 0-8-3.582031-8-8zm-120 0v-64c0-4.417969 3.582031-8 8-8h64c4.417969 0 8 3.582031 8 8v64c0 4.417969-3.582031 8-8 8h-64c-4.417969 0-8-3.582031-8-8zm73.753906 376h-19.507812l-4-16h27.507812zm320 0h-19.507812l-4-16h27.507812zm54.246094-134.894531v93.789062c-.007812 5.027344-4.078125 9.097657-9.105469 9.105469h-429.789062c-5.027344-.007812-9.097657-4.078125-9.105469-9.105469v-93.789062c.007812-5.027344 4.078125-9.097657 9.105469-9.105469h429.789062c5.027344.007812 9.097657 4.078125 9.105469 9.105469zm-312-81.105469v-48c0-4.417969 3.582031-8 8-8h160c4.417969 0 8 3.582031 8 8v48c0 4.417969-3.582031 8-8 8h-160c-4.417969 0-8-3.582031-8-8zm0 0"/></g></svg>
