<svg xmlns="http://www.w3.org/2000/svg" viewBox="0 0 499.71 290.85"><defs><style>.cls-1{isolation:isolate;}.cls-2{opacity:0.3;}.cls-3{fill:#35508d;}.cls-4{mix-blend-mode:screen;}.cls-5{opacity:0.4;}.cls-6{opacity:0.6;}</style></defs><g class="cls-1"><g id="Layer_2" data-name="Layer 2"><g id="Capa_3" data-name="Capa 3"><g class="cls-2"><path class="cls-3" d="M457.36,120.23l-.65,1.11-13.53,23.44h-27L405.52,126.4l-2.68-4.64-.25-.44-.46-.79H376.57a1.81,1.81,0,1,0,0,1.11h24.94L415,145.1l-13.52,23.42H374.42l-.08-.13v1.25h27.79l13.71-23.74h28L458,121.34Z"/><path class="cls-3" d="M214.72,63.05h-35.8L161,32.06l17.89-31h35.8l17.89,31ZM179.55,62h34.54l17.27-29.91L214.09,2.14H179.55L162.27,32.06Z"/><path class="cls-3" d="M109,246.33H73.17l-17.9-31,17.9-31H109l17.89,31Zm-35.17-1.08h34.54l17.28-29.92-17.28-29.92H73.79L56.52,215.33Z"/><path class="cls-3" d="M320.43,63.29H284.64l-17.9-31,17.9-31h35.79l17.9,31Zm-35.17-1.08h34.55l17.27-29.92L319.81,2.38H285.26L268,32.29Z"/><path class="cls-3" d="M320.43,254.58H284.64l-17.9-31,17.9-31h35.79l17.9,31Zm-35.17-1.08h34.55l17.27-29.91-17.27-29.92H285.26L268,223.59Z"/><path class="cls-3" d="M396,290.85H360.16l-17.9-31,17.9-31H396l17.89,31Zm-35.17-1.08h34.54l17.28-29.91-17.28-29.92H360.78l-17.27,29.92Z"/></g><g class="cls-4"><path class="cls-3" d="M485.54,169.64H457.18L443,145.08l14.18-24.55h28.36l14.17,24.55Zm-27.71-1.12h27.06l13.53-23.44-13.53-23.44H457.83l-13.54,23.44Z"/><path class="cls-3" d="M199.45,233A39.13,39.13,0,1,1,238.77,194,39.16,39.16,0,0,1,199.45,233Zm.36-74A34.92,34.92,0,1,0,234.56,194,34.94,34.94,0,0,0,199.81,158.91Z"/><path class="cls-3" d="M199.41,241.19a47.42,47.42,0,0,1-47.13-47.6l3.63,0a43.73,43.73,0,1,0,43.94-43.52l0-3.63a47.37,47.37,0,1,1-.46,94.73Z"/><path class="cls-3" d="M238.88,233.72l-2.56-2.59a52.23,52.23,0,0,0,.36-73.79l2.58-2.56A55.88,55.88,0,0,1,238.88,233.72Z"/><rect class="cls-3" x="263.49" y="179.47" width="0.36" height="19.67" transform="translate(73.08 452.04) rotate(-89.72)"/><rect class="cls-3" x="263.88" y="185.11" width="0.36" height="39.59" transform="translate(57.86 467.96) rotate(-89.72)"/><rect class="cls-3" x="260.9" y="185.25" width="0.36" height="67.19" transform="translate(40.96 478.85) rotate(-89.72)"/><path class="cls-3" d="M212.93,203a6.67,6.67,0,0,0-5.56,2.93l-19.65-9.55a6.46,6.46,0,0,0,.34-2.07,6.57,6.57,0,0,0-.34-2.14l19.06-9.3a6.67,6.67,0,1,0-1.16-3.78,6.58,6.58,0,0,0,.35,2.14l-19.06,9.3a6.68,6.68,0,1,0,0,7.5l19.65,9.54a6.52,6.52,0,0,0-.34,2.08,6.68,6.68,0,1,0,6.71-6.65Z"/><path class="cls-3" d="M271.36,189.52a2.15,2.15,0,1,1,2.13,2.16A2.14,2.14,0,0,1,271.36,189.52Z"/><path class="cls-3" d="M281.71,204.71a2.15,2.15,0,1,1,2.14,2.16A2.14,2.14,0,0,1,281.71,204.71Z"/><path class="cls-3" d="M292.53,219a2.15,2.15,0,1,1,2.13,2.16A2.14,2.14,0,0,1,292.53,219Z"/><polygon class="cls-3" points="360.69 193.56 332.66 193.56 318.48 169.01 332.5 144.73 333.47 145.29 319.77 169.01 333.31 192.45 360.69 192.45 360.69 193.56"/><path class="cls-3" d="M402.48,217.56H374.12L360,193l14.17-24.56h28.36L416.66,193Zm-27.71-1.11h27.06L415.37,193l-13.54-23.44H374.77L361.24,193Z"/><rect class="cls-3" x="408.52" y="215.15" width="1.12" height="27.71" transform="translate(-59.69 235.22) rotate(-30)"/><polygon class="cls-3" points="444.15 241.28 443.18 240.72 456.87 217 443 193.01 443.97 192.45 458.16 217 444.15 241.28"/><rect class="cls-3" x="436.48" y="180.59" width="28.04" height="1.12" transform="translate(68.37 480.72) rotate(-60)"/><rect class="cls-3" x="457.52" y="216.45" width="29.82" height="1.12"/><path class="cls-3" d="M313.85,115,327.4,138.5,313.85,162H286.74L273.19,138.5,286.74,115Zm.7-1.21H286L271.79,138.5,286,163.18h28.51L328.8,138.5l-14.25-24.69Z"/><path class="cls-3" d="M321,168.94a1.82,1.82,0,1,1-1.81-1.81A1.81,1.81,0,0,1,321,168.94Z"/><circle class="cls-3" cx="333.32" cy="145.08" r="1.81"/><path class="cls-3" d="M376.64,168.94a1.82,1.82,0,1,1-1.81-1.81A1.81,1.81,0,0,1,376.64,168.94Z"/><path class="cls-3" d="M459.33,168.94a1.82,1.82,0,1,1-1.81-1.81A1.81,1.81,0,0,1,459.33,168.94Z"/><path class="cls-3" d="M417.83,241.66a1.82,1.82,0,1,1-1.82-1.82A1.82,1.82,0,0,1,417.83,241.66Z"/><path class="cls-3" d="M376.26,217a1.82,1.82,0,1,1-1.81-1.81A1.81,1.81,0,0,1,376.26,217Z"/><path class="cls-3" d="M487.33,217a1.82,1.82,0,1,1-1.81-1.81A1.81,1.81,0,0,1,487.33,217Z"/><path class="cls-3" d="M459.33,217a1.82,1.82,0,1,1-1.81-1.81A1.81,1.81,0,0,1,459.33,217Z"/><path class="cls-3" d="M122.78,91.26,120.62,90l.38-.66,2.16,1.25Zm-3.38-2-2.16-1.24.38-.66,2.16,1.24Zm-3.38-2-2.16-1.25.38-.65,2.16,1.24Zm-3.38-2-2.16-1.25.38-.65L113,84.75Zm-3.38-2-2.16-1.25.38-.66,2.16,1.25Zm-3.38-1.95-2.16-1.25.38-.66,2.16,1.25Zm-3.38-2-2.15-1.25.37-.66,2.16,1.25Zm-3.37-2L97,76.36l.38-.66L99.5,77Zm-3.38-2-2.16-1.24.38-.66L96.13,75Zm-3.38-2-2.16-1.24.38-.66,2.16,1.25Zm-3.38-2-2.16-1.24.38-.66,2.16,1.24Zm-3.38-2-2.16-1.25.38-.65L86,69.14Zm-3.38-2L80.07,66.6l.38-.65,2.16,1.24ZM78.85,65.9l-2.16-1.25.38-.66,2.16,1.25Z"/><path class="cls-3" d="M129.87,152.48l-.38-.66,2.15-1.25.38.66Zm3.37-2-.38-.66,2.16-1.25.38.66Zm3.38-2-.38-.66,2.15-1.25.38.66Zm3.37-2-.38-.65,2.16-1.25.38.65Zm3.38-2L143,144l2.15-1.25.38.65Zm3.37-1.95-.38-.66,2.16-1.25.38.66Zm3.38-2-.38-.66,2.15-1.25.38.66Zm3.37-2-.38-.66,2.16-1.25.38.66Zm3.38-2-.38-.66,2.15-1.25.39.66Zm3.37-2-.38-.65L162,133l.38.65Zm3.38-2-.38-.65,2.15-1.25.39.65Zm3.37-1.95-.38-.66,2.16-1.25.38.66Zm3.38-2-.38-.66,2.16-1.25.38.66Zm3.37-2-.38-.66,2.16-1.25.38.66Z"/><path class="cls-3" d="M4.13,91.36l-.29-.7,2.28-1,.29.7Zm3.58-1.49-.3-.7,2.29-1,.29.69Zm3.57-1.5L11,87.68l2.28-1,.29.69Zm3.57-1.49-.29-.69,2.29-1,.29.7Zm3.58-1.49-.29-.7,2.28-1,.29.7ZM22,83.9l-.29-.7,2.29-1,.29.69Zm3.58-1.5-.29-.69,2.28-.95.29.69Zm3.57-1.49-.29-.69,2.28-1,.29.7Zm3.58-1.49-.3-.69,2.29-1,.29.7Zm3.57-1.49-.29-.7,2.28-1,.29.69Zm3.57-1.49-.29-.7,2.29-.95.29.69Zm3.58-1.5-.29-.69,2.28-1,.29.7ZM47,73.45l-.29-.69,2.29-1,.29.7ZM50.6,72l-.29-.7,2.28-1,.29.7Zm3.57-1.49-.29-.7,2.28-1,.29.69ZM57.74,69l-.29-.69,2.29-1L60,68Zm3.58-1.49L61,66.79l2.28-1,.29.7ZM64.89,66l-.29-.7,2.29-1,.29.7Zm3.58-1.49-.29-.7,2.28-.95.29.69ZM176.3,62l-2.17-1.3.39-.67,2.18,1.31ZM76.42,60.67,76,60l2.21-1.25.38.67Zm96.48-.73-2.18-1.3.39-.67,2.18,1.31Zm-93-1.24L79.5,58l2.21-1.26.38.68Zm89.61-.8-2.18-1.3.4-.67,2.17,1.31ZM83.34,56.74,83,56.06l2.21-1.25.39.67Zm82.74-.88-2.18-1.31.4-.66,2.18,1.31ZM86.81,54.77l-.39-.67,2.22-1.26.38.68Zm75.86-1-2.18-1.31.4-.66,2.18,1.3Zm-72.4-1-.38-.68,2.21-1.25.38.67Zm69-1-2.17-1.31.39-.66,2.18,1.3Zm-65.53-.94-.38-.67,2.21-1.26.38.68Zm62.12-1.1-2.17-1.31.39-.66,2.18,1.3Zm-58.66-.86-.38-.68L99,47l.39.67Zm55.26-1.18-2.18-1.31.4-.66,2.17,1.3Zm-51.79-.79-.39-.67L102.49,45l.38.68ZM149,45.66l-2.18-1.31.4-.66,2.18,1.3ZM104.12,45l-.38-.68L106,43l.38.67Zm41.51-1.34-2.18-1.3.4-.66L146,43Zm-38-.63-.38-.67,2.21-1.26.38.68Zm34.64-1.41L140,40.27l.4-.66,2.18,1.3ZM111.05,41l-.39-.68,2.22-1.25.38.67Zm27.76-1.49-2.17-1.3.39-.66,2.18,1.3Zm-24.3-.48-.38-.67,2.21-1.26.38.68Zm20.9-1.56-2.18-1.3.4-.66,2.17,1.3ZM118,37.09l-.38-.68,2.21-1.25.38.67Zm14-1.64-2.18-1.3.4-.66,2.17,1.3Zm-10.57-.33-.38-.67,2.21-1.26.39.68Z"/><path class="cls-3" d="M231.68,30.89v1.68h.63l.62.63.52-.52-1.77-1.79Zm2.72,2.76-.52.51,1.69,1.72.53-.52-1.7-1.71Zm-2,.28h-.74v2.41h.74V33.93Zm4.63,2.4-.52.52,1.69,1.71.52-.51-1.69-1.72Zm-4.63,1.37h-.74v2.41h.74V37.7ZM239.7,39l-.52.52,1.69,1.71.52-.51L239.7,39Zm-7.28,2.46h-.74v2.41h.74V41.47Zm9.92.23-.52.51,1.69,1.71.52-.51-1.69-1.71ZM245,44.38l-.52.51,1.69,1.72.52-.52L245,44.38Zm-12.57.86h-.74v2.4h.74v-2.4Zm15.22,1.82-.53.51,1.69,1.72.53-.52-1.69-1.71ZM232.42,49h-.74v2.41h.74V49Zm17.86.74-.52.52L251.45,52l.52-.51-1.69-1.72Zm2.65,2.68-.52.52,1.69,1.71.52-.51-1.69-1.72Zm-20.51.35h-.74v2.41h.74V52.77Zm23.15,2.34-.52.51,1.69,1.71.52-.51-1.69-1.71Zm-23.15,1.43h-.74V59h.74V56.54Zm25.8,1.25-.52.51L259.39,60l.52-.52-1.69-1.71Zm-25.8,2.52h-.74v2.4h.74v-2.4Zm28.45.16-.53.51L262,62.7l.52-.52-1.69-1.71Zm2.64,2.68-.52.52,1.69,1.71.52-.51-1.69-1.72Zm-31.09.92h-.74v2.41h.74V64.07Zm33.74,1.76-.52.52,1.69,1.71.52-.51-1.69-1.72Zm-33.74,2h-.74v2.41h.74V67.84Zm36.38.68-.52.51L270,70.74l.53-.51-1.7-1.71Zm2.65,2.68-.52.51,1.69,1.72.52-.52-1.69-1.71Zm-39,.41h-.74V74h.74V71.61Zm41.68,2.27-.52.52,1.69,1.71.52-.52-1.69-1.71Zm-41.68,1.5h-.74v2.41h.74V75.38Zm44.32,1.18-.52.52,1.69,1.71.52-.51-1.69-1.72Zm-44.32,2.59h-.74v2.4h.74v-2.4Zm47,.1-.52.51,1.69,1.71.52-.51-1.69-1.71ZM282,81.93l-.53.51,1.69,1.72.53-.52L282,81.93Zm-49.62,1h-.74v2.41h.74V82.91Zm52.26,1.7-.52.51,1.69,1.72.52-.52-1.69-1.71Zm-52.26,2.07h-.74v2.41h.74V86.68Zm54.91.61-.52.52,1.69,1.71L289,89l-1.69-1.71ZM290,90l-.52.52.55.56.52-.52L290,90Z"/><path class="cls-3" d="M53.67,32.53H51.18v-.75h2.49Zm-3.9,0H47.28v-.75h2.49Zm-3.9,0h-2.5v-.75h2.5Zm-3.91,0H39.47v-.75H42Zm-3.9,0H35.57v-.75h2.49Zm-3.9,0H31.67v-.75h2.49Zm-3.9,0h-2.5v-.75h2.5Zm-3.9,0h-2.5v-.75h2.5Zm-3.91,0H20v-.75h2.49Z"/><path class="cls-3" d="M75.64,121.36l-.38-.68,2.25-1.26.38.68Zm3.52-2-.38-.68L81,117.45l.38.69Zm3.52-2-.38-.69,2.25-1.25.38.68Zm3.52-2-.38-.68,2.25-1.26.38.68Zm3.52-2-.38-.68,2.25-1.26.38.69Zm3.52-2-.38-.69,2.25-1.25.38.68Zm3.52-2-.38-.68,2.25-1.26.38.68Zm3.52-2-.38-.68,2.25-1.26.38.69Zm3.52-2-.38-.69,2.25-1.25.38.68Zm3.52-2-.38-.68,2.25-1.26.38.69Zm3.52-2-.38-.69,2.24-1.26.39.69Zm3.52-2L114,99l2.24-1.25.39.68Zm3.52-2-.38-.68,2.24-1.26.39.69Zm3.52-2-.39-.69,2.25-1.26.39.69Z"/><polygon class="cls-3" points="108.78 62.91 73.19 62.91 55.23 31.82 73.03 0.99 73.97 1.53 56.48 31.82 73.81 61.83 108.78 61.83 108.78 62.91"/><rect class="cls-3" x="99.96" y="168.77" width="35.28" height="1.08" transform="translate(-87.83 186.49) rotate(-60)"/><path class="cls-3" d="M161.89,93.47H126l-18-31.1,18-31.09h35.91l18,31.09Zm-35.28-1.08h34.65l17.33-30-17.33-30H126.61l-17.33,30Z"/><polygon class="cls-3" points="161.89 154.58 125.98 154.58 108.18 123.75 109.12 123.21 126.61 153.5 161.26 153.5 178.59 123.48 161.1 93.2 162.04 92.66 179.84 123.48 161.89 154.58"/><polygon class="cls-3" points="109.09 124.02 73.19 124.02 55.23 92.93 73.19 61.83 108.78 61.83 108.78 62.91 73.81 62.91 56.48 92.93 73.81 122.94 108.47 122.94 125.95 92.66 126.89 93.2 109.09 124.02"/><polygon class="cls-3" points="214.89 123.75 213.95 123.21 231.44 92.93 214.11 62.91 179.14 62.91 179.14 61.83 214.74 61.83 232.69 92.93 214.89 123.75"/><rect class="cls-3" x="205.6" y="46.55" width="35.28" height="1.08" transform="translate(70.84 216.89) rotate(-60)"/><rect class="cls-3" x="232.06" y="92.39" width="60.29" height="1.08"/><rect class="cls-3" x="1.76" y="92.39" width="54.1" height="1.08"/><circle class="cls-3" cx="108.78" cy="123.48" r="1.76"/><circle class="cls-3" cx="73.5" cy="123.48" r="1.76"/><path class="cls-3" d="M110.54,184.59a1.76,1.76,0,1,1-1.76-1.76A1.76,1.76,0,0,1,110.54,184.59Z"/><path class="cls-3" d="M128.18,92.93a1.76,1.76,0,1,1-1.76-1.76A1.76,1.76,0,0,1,128.18,92.93Z"/><path class="cls-3" d="M128.18,154a1.76,1.76,0,1,1-1.76-1.76A1.76,1.76,0,0,1,128.18,154Z"/><circle class="cls-3" cx="161.86" cy="92.93" r="1.76"/><circle class="cls-3" cx="161.86" cy="31.82" r="1.76"/><path class="cls-3" d="M128.05,31.82a1.76,1.76,0,1,1-1.76-1.76A1.76,1.76,0,0,1,128.05,31.82Z"/><circle class="cls-3" cx="232.06" cy="92.93" r="1.76"/><path class="cls-3" d="M294.12,92.93a1.77,1.77,0,1,1-1.76-1.76A1.76,1.76,0,0,1,294.12,92.93Z"/><path class="cls-3" d="M57.62,92.93a1.76,1.76,0,1,1-1.76-1.76A1.76,1.76,0,0,1,57.62,92.93Z"/><path class="cls-3" d="M3.52,92.93a1.76,1.76,0,1,1-1.76-1.76A1.76,1.76,0,0,1,3.52,92.93Z"/><circle class="cls-3" cx="108.78" cy="62.37" r="1.76"/><circle class="cls-3" cx="73.5" cy="62.37" r="1.76"/><circle class="cls-3" cx="214.37" cy="62.37" r="1.76"/><circle class="cls-3" cx="232.06" cy="31.82" r="1.76"/><path class="cls-3" d="M180.85,62.37a1.77,1.77,0,1,1-1.76-1.76A1.76,1.76,0,0,1,180.85,62.37Z"/><path class="cls-3" d="M163.62,154a1.76,1.76,0,1,1-1.76-1.76A1.76,1.76,0,0,1,163.62,154Z"/><path class="cls-3" d="M180.85,123.48a1.77,1.77,0,1,1-1.76-1.76A1.76,1.76,0,0,1,180.85,123.48Z"/><circle class="cls-3" cx="214.37" cy="123.48" r="1.76"/><path class="cls-3" d="M57.62,31.82a1.76,1.76,0,1,1-1.76-1.76A1.76,1.76,0,0,1,57.62,31.82Z"/><circle class="cls-3" cx="73.5" cy="1.76" r="1.76"/><path class="cls-3" d="M143.51,47.76a.32.32,0,0,0-.35,0,.34.34,0,0,0-.19.3v2.89a12.06,12.06,0,0,0-11.35,11.89,11.77,11.77,0,0,0,3.09,7.94.32.32,0,0,0,.24.11.31.31,0,0,0,.2-.07l2.8-2.2a.31.31,0,0,0,.12-.23.28.28,0,0,0-.09-.25,7.55,7.55,0,0,1-2.19-5.3,7.72,7.72,0,0,1,7.18-7.6V58.1a.33.33,0,0,0,.19.3.34.34,0,0,0,.35,0l3.29-2.59.06,0,1.26-1,1.95-1.55a.32.32,0,0,0,0-.52Z"/><path class="cls-3" d="M151.86,54.39l-3,2.37a.32.32,0,0,0,0,.5,7.52,7.52,0,0,1,2.45,5.55,7.69,7.69,0,0,1-7.64,7.62v-3a.34.34,0,0,0-.55-.26l-3.2,2.47a.31.31,0,0,0-.15.1v0l-3,2.31a.31.31,0,0,0-.13.25.35.35,0,0,0,.13.26l6.35,5.18a.42.42,0,0,0,.21.08.4.4,0,0,0,.15,0,.33.33,0,0,0,.19-.29V74.72a12,12,0,0,0,12.21-11.91,11.74,11.74,0,0,0-3.54-8.4A.36.36,0,0,0,151.86,54.39Z"/><path class="cls-3" d="M322.11,169.82l-.36.61,2,1.19.36-.61-2-1.19Zm3.13,1.86-.36.61,2,1.18.36-.61-2-1.18Zm3.14,1.85-.36.61,2,1.19.36-.61-2-1.19Zm3.13,1.86-.36.61,2,1.18.36-.61-2-1.18Zm3.14,1.85-.36.61,2,1.19.36-.61-2-1.19Zm3.13,1.86-.36.61,2,1.18.37-.61-2-1.18Zm3.14,1.85-.36.61,2,1.19.36-.61-2-1.19Zm3.13,1.86-.36.61,2,1.18.36-.61-2-1.18Zm3.14,1.85-.36.61,2,1.19.36-.61-2-1.19Zm3.13,1.86-.36.61,2,1.18.36-.61-2-1.18Zm3.14,1.85-.36.61,2,1.19.36-.61-2-1.19Zm3.13,1.86-.36.61,2,1.18.36-.61-2-1.18Z"/><path class="cls-3" d="M377.18,215.85l-.37-.64,2.11-1.22.37.64Zm3.31-1.91-.38-.64,2.11-1.22.37.64Zm3.3-1.91-.37-.64,2.11-1.22.37.64Zm3.3-1.9-.37-.65,2.11-1.22.37.65Zm3.3-1.91-.37-.64,2.11-1.22.37.64Zm3.3-1.91-.37-.64,2.11-1.22.37.64ZM397,204.4l-.37-.64,2.11-1.22.37.64Zm3.3-1.91-.37-.64,2.11-1.22.37.64Zm3.3-1.9-.37-.65,2.11-1.22.37.65Zm3.3-1.91-.37-.64,2.11-1.22.37.64Zm3.31-1.91-.38-.64,2.11-1.22.38.64Zm3.3-1.91-.37-.64,2.11-1.22.37.64Zm3.3-1.91-.37-.64,2.11-1.22.37.64Zm3.3-1.9-.37-.65,2.11-1.21.37.64Zm3.3-1.91-.37-.64,2.11-1.22.37.64Zm3.31-1.91-.37-.64,2.11-1.22.37.64Zm3.3-1.91-.37-.64,2.11-1.22.37.64Zm3.3-1.91-.37-.64,2.11-1.22.37.65Zm3.3-1.9-.37-.65,2.11-1.21.37.64Zm3.31-1.91-.37-.64,2.11-1.22.37.64Zm3.3-1.91-.37-.64,2.11-1.22.37.64Zm3.3-1.91-.37-.64,2.11-1.22.37.64Zm3.3-1.91-.37-.64,2.11-1.22.37.65Zm3.31-1.9-.38-.65,2.11-1.21.38.64Z"/><g class="cls-5"><path class="cls-3" d="M246,39.53l1.26,1.32a.56.56,0,0,0,.86-.07,19.41,19.41,0,0,0-16.78-30.2,18.15,18.15,0,0,0-2.21.2,19.42,19.42,0,0,0-12.56,31,.56.56,0,0,0,.87,0l1.17-1.4a.56.56,0,0,0,0-.69,16.55,16.55,0,1,1,27.3-.9A.56.56,0,0,0,246,39.53Z"/></g><g class="cls-6"><path class="cls-3" d="M241.45,34.51,243,36.08a.64.64,0,0,0,1-.17A13,13,0,0,0,245.2,30a13.21,13.21,0,1,0-26.4.87,13,13,0,0,0,1.6,5.85.63.63,0,0,0,1,.11l1.4-1.67a.63.63,0,0,0,.09-.67,9.79,9.79,0,0,1-.87-3.73,9.95,9.95,0,1,1,19.88-.65,10.14,10.14,0,0,1-.62,3.78A.62.62,0,0,0,241.45,34.51Z"/></g><path class="cls-3" d="M243.48,46.83l-.18-5.42a2,2,0,0,0-1.18-1.94,1.82,1.82,0,0,0-1.37.11h-.13a1.56,1.56,0,0,0-1.34-1.19,2.09,2.09,0,0,0-1.68.4,1.78,1.78,0,0,0-1.95-.95,2.23,2.23,0,0,0-1.52.88L234,34.1c0-.9-.09-1.81-.09-2.72a1.93,1.93,0,0,0-1.91-1.7,2.07,2.07,0,0,0-1.49.69,2.16,2.16,0,0,0-.42,1.54v8.36c0,.19.08,4.46.08,4.46-.37-.35-.79-.76-1.16-1.15A6,6,0,0,0,225.52,42a1.75,1.75,0,0,0-1.22.26,2.73,2.73,0,0,0-.25.23,1.75,1.75,0,0,0-.49,2,2.19,2.19,0,0,0,.75.61,5.32,5.32,0,0,1,1.57,1.1c.85,1,2.83,3.32,4.05,4.53.24.15.78.65,1,.77a9,9,0,0,1,1.59,1.1,7.85,7.85,0,0,0,1.16.65,7.61,7.61,0,0,0,3.88.83c1.64-.05,3.13,0,4.2-1h.06l0-.08a5.43,5.43,0,0,0,1.69-4.08C243.54,48.53,243.49,47.1,243.48,46.83Z"/><path class="cls-3" d="M231.85,25.5a4.72,4.72,0,0,0-3,8.1V31.67A3.13,3.13,0,0,1,232,28.55a3.12,3.12,0,0,1,3,2.39,2.92,2.92,0,0,1,.09.73v2a4.74,4.74,0,0,0-3.26-8.18Z"/><path class="cls-3" d="M98.86,22.52A6.44,6.44,0,0,0,92,25.72a6.54,6.54,0,0,0-6.92-3.24c-2.51.59-4.08,2.84-4.08,5.87,0,6.85,10.31,15.23,10.75,15.58A.42.42,0,0,0,92,44a.4.4,0,0,0,.26-.1,50.62,50.62,0,0,0,5.35-5.15c3.58-4,5.4-7.53,5.4-10.43C103,26,101.91,23.21,98.86,22.52Z"/><path class="cls-3" d="M313.53,135.56h0a1.2,1.2,0,0,0-1.14-.82h-7.85l-2.43-7.47a1.19,1.19,0,0,0-1.14-.83,1.18,1.18,0,0,0-1.13.83l-2.43,7.47h-7.86a1.18,1.18,0,0,0-1.13.82,1.2,1.2,0,0,0,.43,1.34l6.36,4.62L292.78,149a1.19,1.19,0,0,0,1.84,1.33l6.35-4.61,6.36,4.61a1.2,1.2,0,0,0,1.41,0,1.18,1.18,0,0,0,.43-1.33l-2.43-7.47,6.36-4.62A1.2,1.2,0,0,0,313.53,135.56Z"/><path class="cls-3" d="M437.64,209.58a8.3,8.3,0,0,0-6.74-4.05H430a8.32,8.32,0,0,0-6.74,4.05,8.75,8.75,0,0,0-.48,8.18l7.28,14.1a.44.44,0,0,0,.41.26.46.46,0,0,0,.41-.26l7.28-14.11A8.74,8.74,0,0,0,437.64,209.58Zm-7.2,8.24a3.78,3.78,0,1,1,3.77-3.78A3.79,3.79,0,0,1,430.44,217.82Z"/><path class="cls-3" d="M479.24,135.64a1.47,1.47,0,0,0-1.22-.31l-12.33,2.5a1.48,1.48,0,0,0-1.2,1.45v10.3a3.86,3.86,0,0,0-1.13-.16,4.08,4.08,0,1,0,4.08,4.07v-10l9.39-1.91V147a4.23,4.23,0,0,0-1.13-.16,4.08,4.08,0,1,0,4.08,4.08V136.78A1.48,1.48,0,0,0,479.24,135.64Z"/><path class="cls-3" d="M144.2,118.59a16.57,16.57,0,0,0-11.46,4.58,2.55,2.55,0,0,0-.79,1.77,2.51,2.51,0,0,0,.7,1.82,2.55,2.55,0,0,0,1.84.79,2.52,2.52,0,0,0,1.75-.7,11.55,11.55,0,0,1,15.9,0,2.55,2.55,0,0,0,4.29-1.92,2.52,2.52,0,0,0-.8-1.78A16.57,16.57,0,0,0,144.2,118.59Z"/><path class="cls-3" d="M161,116.18a24.43,24.43,0,0,0-33.6,0,2.5,2.5,0,0,0-.78,1.77,2.54,2.54,0,0,0,.69,1.82,2.57,2.57,0,0,0,1.85.79,2.53,2.53,0,0,0,1.75-.7,19.35,19.35,0,0,1,26.61,0,2.54,2.54,0,0,0,4.28-1.91A2.5,2.5,0,0,0,161,116.18Z"/><path class="cls-3" d="M144.61,127.81a5,5,0,1,0,5,5A5,5,0,0,0,144.61,127.81Zm0,5s-.06,0-.06,0a0,0,0,0,1,.06,0Z"/><path class="cls-3" d="M410.07,90.53H389.46V86.9H409.8a16.73,16.73,0,0,0,14-16.42,16.59,16.59,0,0,0-4-10.77l-.05-.07a20.09,20.09,0,0,0-15.93-7.79,20.38,20.38,0,0,0-5.1.65l-1.43.37-.65-1.33a19.23,19.23,0,0,0-17.39-10.87,19.45,19.45,0,0,0-18.88,15.15L360,57.35l-1.57-.12c-.44,0-.8,0-1.15,0a14.86,14.86,0,0,0,0,29.72h16.95v3.63H357.31a18.49,18.49,0,0,1-.11-37A23,23,0,0,1,379.25,37a22.82,22.82,0,0,1,20,11.62,24.39,24.39,0,0,1,4.6-.44,23.68,23.68,0,0,1,18.77,9.16A20.3,20.3,0,0,1,427.1,67a20.74,20.74,0,0,1,.3,3.49,20.24,20.24,0,0,1-17.19,20Z"/><path class="cls-3" d="M387.82,95.88H384V78.55h-5.24V95.88H375a.73.73,0,0,0-.63,1.1l6.41,11.12a.74.74,0,0,0,1.28,0L388.46,97A.73.73,0,0,0,387.82,95.88Z"/><path class="cls-3" d="M102.68,130.84l13.13,22.75-13.13,22.75H76.41L63.27,153.59l13.14-22.75Zm.7-1.21H75.71l-13.83,24,13.83,24h27.67l13.83-24-13.83-24Z"/><path class="cls-3" d="M90.08,143c-6.88,0-12.45,4.68-12.45,10.46S83.2,164,90.08,164a14.62,14.62,0,0,0,4-.55L96.67,166a.39.39,0,0,0,.66-.22l.56-4.18a9.93,9.93,0,0,0,4.64-8.15C102.53,147.7,97,143,90.08,143Zm-7.56,12.46a1.69,1.69,0,1,1,1.69-1.69A1.69,1.69,0,0,1,82.52,155.48Zm7,0a1.69,1.69,0,1,1,1.69-1.69A1.69,1.69,0,0,1,89.54,155.48Zm7.25,0a1.69,1.69,0,1,1,1.69-1.69A1.69,1.69,0,0,1,96.79,155.48Z"/></g></g></g></g></svg>