<svg id="bf438232-216e-4e3b-bd31-7675998812a1" data-name="Layer 1" xmlns="http://www.w3.org/2000/svg" width="782.40551" height="665.60645" viewBox="0 0 782.40551 665.60645">
<rect x="113" y="197.60645" width="127" height="64" fill="#fff"/><rect x="128.00492" y="413.9894" width="96.99016" height="3.28781" fill="#ccc"/>
<rect x="128.00492" y="427.96253" width="96.99016" height="3.28781" fill="#ccc"/>
<rect x="128.00492" y="441.93568" width="96.99016" height="3.28781" fill="#ccc"/>
<path d="M449.79724,579.80322h-129v-66h129Zm-127-2h125v-62h-125Z" transform="translate(-208.79724 -117.19678)" fill="#3f3d56"/><path d="M357.5347,435.31175A144.4396,144.4396,0,0,1,281.423,413.7047l-.58075-.3598.35913-.58074,75.95212-122.92238H502.32046v.68354C502.32046,370.36109,437.36979,435.31175,357.5347,435.31175Z" transform="translate(-208.79724 -117.19678)" fill="#f82b60"/>
<path d="M264.39766,383.11878,263.931,382.83a116.25841,116.25841,0,0,1-39.82172-156.52455l.27243-.47547,101.40059,57.943Z" transform="translate(-208.79724 -117.19678)" fill="#f1f1f1"/>
<path d="M502.32046,270.44823H356.6836l31.39562-142.23216.66685.14652A144.83118,144.83118,0,0,1,502.32046,269.76468Z" transform="translate(-208.79724 -117.19678)" fill="#f82b60"/><path d="M333.48684,248.04719,234.80924,191.66l.26523-.463a113.04267,113.04267,0,0,1,122.38838-54.243l.52108.11453Z" transform="translate(-208.79724 -117.19678)" fill="#f1f1f1"/><rect x="367.00394" y="1.00015" width="127" height="64" fill="#fff"/><rect x="382.00885" y="17.3831" width="96.99016" height="3.28781" fill="#ccc"/><rect x="382.00885" y="31.35623" width="96.99016" height="3.28781" fill="#ccc"/><rect x="382.00885" y="45.32938" width="96.99016" height="3.28781" fill="#ccc"/><path d="M703.80115,183.19678h-129v-66h129Zm-127-2h125v-62h-125Z" transform="translate(-208.79724 -117.19678)" fill="#3f3d56"/><rect x="175.77173" y="231.96875" width="2" height="164.6377" fill="#3f3d56"/><rect x="418.25662" y="184.13696" width="164.78461" height="2" transform="translate(-240.60342 105.57799) rotate(-24.33745)" fill="#3f3d56"/></svg>
